<svg width="327" height="347" viewBox="0 0 327 347" fill="none" xmlns="http://www.w3.org/2000/svg">
<path d="M70.0668 294.858H25.486C23.393 294.858 21.5093 293.799 20.2535 291.893C19.207 290.198 18.9978 287.868 19.835 285.961L42.23 237.454C43.2765 235.336 45.3695 233.853 47.8811 233.853C50.3927 233.853 52.4857 235.336 53.5321 237.454L75.9272 285.961C76.7644 287.868 76.7644 290.198 75.5086 291.893C74.4621 293.587 72.3691 294.858 70.2761 294.858H70.0668ZM35.1138 282.572H60.439L47.6718 255.035L34.9045 282.572H35.1138Z" fill="url(#paint0_linear_162_327)"/>
<path d="M130.17 294.44C113.752 294.44 100.659 281.491 100.659 264.991C100.659 248.491 113.96 235.124 130.378 235.124C146.796 235.124 151.368 244.02 151.368 244.02C151.368 244.02 153.654 250.162 151.368 252.459C149.082 254.757 145.134 254.757 142.847 252.459C139.522 249.118 135.158 247.238 130.378 247.238C120.61 247.238 112.92 255.175 112.92 264.782C112.92 274.39 120.818 282.326 130.378 282.326C139.938 282.326 142.224 279.194 145.341 273.763C147.004 270.839 150.745 270.004 153.654 271.675C156.564 273.345 157.395 277.105 155.733 280.029C150.329 289.01 140.561 294.44 130.17 294.44Z" fill="url(#paint1_linear_162_327)"/>
<path d="M212.483 294.858H166.697C164.558 294.858 162.632 293.803 161.349 291.903C160.279 290.214 160.065 287.892 160.921 285.992L183.813 237.441C184.883 235.331 187.023 233.853 189.59 233.853C192.157 233.853 194.297 235.331 195.367 237.441L218.259 285.992C219.115 287.892 219.115 290.214 217.831 291.903C216.762 293.592 214.622 294.858 212.483 294.858ZM176.539 282.615H202.641L189.59 254.962L176.539 282.615Z" fill="url(#paint2_linear_162_327)"/>
<path d="M268.871 294.858C265.496 294.858 262.542 292.121 262.542 288.542V253.385L253.683 260.753C251.362 262.648 247.987 262.648 245.878 260.753L236.596 253.174V288.332C236.596 291.7 233.854 294.648 230.268 294.648C226.682 294.648 223.939 291.911 223.939 288.332V240.122C223.939 237.806 225.416 235.49 227.526 234.438C229.635 233.385 232.166 233.806 234.065 235.28L249.464 247.911L264.652 235.28C266.55 233.806 269.082 233.385 271.191 234.438C273.3 235.49 274.777 237.596 274.777 240.122V288.332C274.777 291.7 272.035 294.648 268.449 294.648L268.871 294.858Z" fill="url(#paint3_linear_162_327)"/>
<path d="M6.33477 294.573C2.95611 294.573 0.210938 291.828 0.210938 288.449V256.774C0.210938 253.395 2.95611 250.65 6.33477 250.65C9.71344 250.65 12.4586 253.395 12.4586 256.774V288.449C12.4586 291.828 9.71344 294.573 6.33477 294.573Z" fill="url(#paint4_linear_162_327)"/>
<path d="M6.335 246.427C9.83372 246.427 12.67 243.59 12.67 240.092C12.67 236.593 9.83372 233.757 6.335 233.757C2.83628 233.757 0 236.593 0 240.092C0 243.59 2.83628 246.427 6.335 246.427Z" fill="url(#paint5_linear_162_327)"/>
<path d="M307.689 233.853H297.882C290.788 233.853 284.945 239.723 284.945 246.851V288.359C284.945 291.923 287.867 294.858 291.414 294.858C294.961 294.858 297.882 291.923 297.882 288.359V272.427H307.689C318.331 272.427 326.886 263.831 326.886 253.14C326.886 242.448 318.331 233.853 307.689 233.853ZM307.689 259.219H297.882V246.641H307.689C311.237 246.641 313.949 249.366 313.949 252.93C313.949 256.494 311.237 259.219 307.689 259.219Z" fill="url(#paint6_linear_162_327)"/>
<path d="M275.819 193.691C273.139 193.691 270.459 192.262 268.851 189.76L176.509 22.5139C174.186 18.5829 170.076 16.4387 165.609 16.4387C161.142 16.4387 157.032 18.7616 154.709 22.5139L58.3635 189.582C56.0406 193.513 50.8588 194.585 47.1065 192.262C43.1755 189.939 42.1034 184.757 44.4263 181.005L140.772 13.9372C146.133 5.18175 155.424 -1.36323e-05 165.609 -1.36323e-05C175.794 -1.36323e-05 185.085 5.18175 190.624 13.9372L282.967 181.184C285.289 185.115 284.217 190.118 280.286 192.441C278.857 193.334 277.427 193.691 275.998 193.691H275.819Z" fill="url(#paint7_linear_162_327)"/>
<path fill-rule="evenodd" clip-rule="evenodd" d="M170.263 78.7035L232.595 191.372L232.641 191.443C234.18 193.831 236.781 195.256 239.48 195.256H239.601C241.014 195.256 242.438 194.896 243.813 194.045C247.741 191.708 248.702 186.773 246.511 183.031L184.18 70.3649L184.14 70.3009C179.946 63.6847 172.874 59.7342 165.113 59.7342C157.358 59.7342 150.267 63.6814 146.187 70.3326L146.17 70.3611L81.1587 182.868C78.916 186.528 79.9189 191.6 83.8364 193.927C87.5047 196.177 92.6033 195.177 94.9333 191.241L94.9402 191.23L159.937 78.7468C161.048 76.9804 162.996 75.8883 165.113 75.8883C167.288 75.8883 169.185 76.9065 170.263 78.7035ZM165.113 73.3464C165.113 73.3464 165.113 73.3464 165.113 73.3464C164.925 73.3464 164.737 73.3525 164.551 73.3646C164.737 73.3525 164.925 73.3464 165.113 73.3464Z" fill="url(#paint8_linear_162_327)"/>
<path d="M164 194.685C172.487 194.685 179.367 187.805 179.367 179.318C179.367 170.831 172.487 163.951 164 163.951C155.514 163.951 148.634 170.831 148.634 179.318C148.634 187.805 155.514 194.685 164 194.685Z" fill="url(#paint9_linear_162_327)"/>
<path d="M249.831 338.526C250.705 338.526 251.415 338.429 251.96 338.237C252.994 337.868 253.511 337.183 253.511 336.18C253.511 335.595 253.255 335.142 252.742 334.821C252.229 334.509 251.423 334.232 250.324 333.992L248.448 333.571C246.604 333.154 245.329 332.701 244.624 332.212C243.429 331.394 242.832 330.115 242.832 328.375C242.832 326.787 243.409 325.468 244.563 324.418C245.718 323.368 247.414 322.843 249.651 322.843C251.519 322.843 253.111 323.34 254.425 324.334C255.748 325.32 256.442 326.755 256.506 328.64H252.946C252.882 327.573 252.417 326.816 251.551 326.367C250.974 326.07 250.256 325.922 249.398 325.922C248.444 325.922 247.682 326.114 247.113 326.499C246.544 326.884 246.259 327.421 246.259 328.11C246.259 328.744 246.54 329.217 247.101 329.53C247.462 329.738 248.232 329.983 249.41 330.263L252.465 330.997C253.804 331.318 254.814 331.746 255.496 332.284C256.554 333.118 257.083 334.324 257.083 335.904C257.083 337.523 256.462 338.87 255.219 339.945C253.984 341.011 252.237 341.544 249.976 341.544C247.666 341.544 245.85 341.019 244.527 339.969C243.204 338.91 242.543 337.459 242.543 335.615H246.079C246.191 336.425 246.412 337.03 246.74 337.431C247.342 338.161 248.372 338.526 249.831 338.526Z" fill="white"/>
<path d="M232.068 341.581C229.535 341.581 227.598 340.891 226.259 339.512C224.463 337.82 223.565 335.383 223.565 332.2C223.565 328.952 224.463 326.515 226.259 324.887C227.598 323.508 229.535 322.819 232.068 322.819C234.602 322.819 236.538 323.508 237.877 324.887C239.665 326.515 240.559 328.952 240.559 332.2C240.559 335.383 239.665 337.82 237.877 339.512C236.538 340.891 234.602 341.581 232.068 341.581ZM235.568 336.818C236.426 335.736 236.855 334.196 236.855 332.2C236.855 330.211 236.422 328.676 235.556 327.593C234.698 326.503 233.536 325.958 232.068 325.958C230.601 325.958 229.431 326.499 228.557 327.581C227.683 328.664 227.246 330.203 227.246 332.2C227.246 334.196 227.683 335.736 228.557 336.818C229.431 337.9 230.601 338.442 232.068 338.442C233.536 338.442 234.702 337.9 235.568 336.818Z" fill="white"/>
<path d="M215.567 337.648L218.273 327.978H221.918L217.42 340.871C216.554 343.357 215.868 344.896 215.363 345.489C214.858 346.091 213.848 346.391 212.332 346.391C212.028 346.391 211.783 346.387 211.599 346.379C211.414 346.379 211.138 346.367 210.769 346.343V343.601L211.202 343.625C211.538 343.641 211.859 343.629 212.164 343.589C212.469 343.549 212.725 343.457 212.934 343.312C213.134 343.176 213.318 342.892 213.487 342.459C213.663 342.026 213.735 341.761 213.703 341.665L208.893 327.978H212.705L215.567 337.648Z" fill="white"/>
<path d="M208.039 338.646V341.208L206.415 341.268C204.796 341.324 203.689 341.044 203.096 340.426C202.711 340.033 202.518 339.428 202.518 338.61V330.54H200.69V328.099H202.518V324.443H205.91V328.099H208.039V330.54H205.91V337.468C205.91 338.005 205.978 338.342 206.115 338.478C206.251 338.606 206.668 338.67 207.365 338.67C207.47 338.67 207.578 338.67 207.69 338.67C207.81 338.662 207.927 338.654 208.039 338.646Z" fill="white"/>
<path d="M198.705 327.978V341.088H195.229V327.978H198.705ZM198.705 323.252V326.415H195.229V323.252H198.705Z" fill="white"/>
<path d="M186.294 330.516C185.132 330.516 184.334 331.009 183.901 331.995C183.676 332.516 183.564 333.182 183.564 333.992V341.088H180.148V328.002H183.456V329.915C183.897 329.241 184.314 328.756 184.707 328.459C185.412 327.93 186.306 327.666 187.389 327.666C188.744 327.666 189.85 328.022 190.708 328.736C191.574 329.442 192.007 330.616 192.007 332.26V341.088H188.495V333.114C188.495 332.424 188.403 331.895 188.218 331.526C187.882 330.853 187.24 330.516 186.294 330.516Z" fill="white"/>
<path d="M173.474 339.235C173.442 339.275 173.361 339.396 173.233 339.596C173.105 339.797 172.953 339.973 172.776 340.125C172.239 340.606 171.718 340.935 171.213 341.112C170.716 341.288 170.13 341.376 169.457 341.376C167.516 341.376 166.209 340.679 165.536 339.283C165.159 338.514 164.971 337.379 164.971 335.88V327.978H168.483V335.88C168.483 336.626 168.571 337.187 168.747 337.564C169.06 338.229 169.673 338.562 170.587 338.562C171.758 338.562 172.56 338.089 172.993 337.143C173.217 336.63 173.329 335.952 173.329 335.11V327.978H176.805V341.088H173.474V339.235Z" fill="white"/>
<path d="M150.514 331.587C150.226 330.953 149.66 330.636 148.819 330.636C147.84 330.636 147.183 330.953 146.846 331.587C146.662 331.947 146.569 332.485 146.569 333.198V341.088H143.094V328.003H146.425V329.915C146.85 329.233 147.251 328.748 147.628 328.46C148.293 327.946 149.155 327.69 150.214 327.69C151.216 327.69 152.026 327.91 152.643 328.351C153.14 328.76 153.517 329.285 153.774 329.927C154.223 329.157 154.78 328.592 155.445 328.231C156.151 327.87 156.937 327.69 157.803 327.69C158.38 327.69 158.949 327.802 159.51 328.027C160.072 328.251 160.581 328.644 161.038 329.205C161.407 329.662 161.655 330.224 161.783 330.889C161.864 331.33 161.904 331.975 161.904 332.825L161.88 341.088H158.368V332.741C158.368 332.244 158.288 331.835 158.127 331.514C157.823 330.905 157.261 330.6 156.444 330.6C155.497 330.6 154.844 330.993 154.483 331.779C154.299 332.196 154.207 332.697 154.207 333.282V341.088H150.755V333.282C150.755 332.505 150.675 331.939 150.514 331.587Z" fill="white"/>
<path d="M128.601 331.587C128.313 330.953 127.747 330.636 126.905 330.636C125.927 330.636 125.27 330.953 124.933 331.587C124.749 331.947 124.656 332.485 124.656 333.198V341.088H121.181V328.003H124.512V329.915C124.937 329.233 125.338 328.748 125.715 328.46C126.38 327.946 127.242 327.69 128.301 327.69C129.303 327.69 130.113 327.91 130.73 328.351C131.227 328.76 131.604 329.285 131.86 329.927C132.309 329.157 132.867 328.592 133.532 328.231C134.238 327.87 135.024 327.69 135.889 327.69C136.467 327.69 137.036 327.802 137.597 328.027C138.159 328.251 138.668 328.644 139.125 329.205C139.494 329.662 139.742 330.224 139.87 330.889C139.951 331.33 139.991 331.975 139.991 332.825L139.967 341.088H136.455V332.741C136.455 332.244 136.375 331.835 136.214 331.514C135.91 330.905 135.348 330.6 134.53 330.6C133.584 330.6 132.931 330.993 132.57 331.779C132.386 332.196 132.293 332.697 132.293 333.282V341.088H128.842V333.282C128.842 332.505 128.762 331.939 128.601 331.587Z" fill="white"/>
<path d="M117.116 329.638C118.222 331.025 118.775 332.665 118.775 334.557C118.775 336.481 118.222 338.129 117.116 339.5C116.009 340.863 114.329 341.545 112.076 341.545C109.823 341.545 108.144 340.863 107.037 339.5C105.931 338.129 105.377 336.481 105.377 334.557C105.377 332.665 105.931 331.025 107.037 329.638C108.144 328.251 109.823 327.557 112.076 327.557C114.329 327.557 116.009 328.251 117.116 329.638ZM112.064 330.456C111.062 330.456 110.288 330.813 109.743 331.526C109.206 332.232 108.937 333.242 108.937 334.557C108.937 335.872 109.206 336.886 109.743 337.6C110.288 338.313 111.062 338.67 112.064 338.67C113.067 338.67 113.836 338.313 114.374 337.6C114.911 336.886 115.179 335.872 115.179 334.557C115.179 333.242 114.911 332.232 114.374 331.526C113.836 330.813 113.067 330.456 112.064 330.456Z" fill="white"/>
<path d="M101.168 339.765C99.8453 340.975 98.1535 341.581 96.0929 341.581C93.5432 341.581 91.5388 340.763 90.0795 339.127C88.6203 337.484 87.8906 335.231 87.8906 332.368C87.8906 329.273 88.7205 326.888 90.3802 325.212C91.8234 323.753 93.6595 323.023 95.8885 323.023C98.8711 323.023 101.052 324.002 102.431 325.958C103.193 327.056 103.602 328.159 103.658 329.265H99.9535C99.713 328.415 99.4043 327.774 99.0275 327.341C98.354 326.571 97.3557 326.186 96.0328 326.186C94.6858 326.186 93.6234 326.732 92.8457 327.822C92.0679 328.905 91.6791 330.44 91.6791 332.428C91.6791 334.417 92.088 335.908 92.9058 336.902C93.7317 337.889 94.778 338.382 96.0448 338.382C97.3437 338.382 98.3339 337.957 99.0154 337.107C99.3923 336.65 99.705 335.964 99.9535 335.05H103.622C103.301 336.983 102.483 338.554 101.168 339.765Z" fill="white"/>
<path d="M83.3308 333.316H84.7967C84.6101 333.822 84.1951 334.976 83.5518 336.778C83.0705 338.134 82.6678 339.239 82.3437 340.093C81.5776 342.107 81.0374 343.334 80.7231 343.776C80.4088 344.218 79.8686 344.439 79.1024 344.439C78.9158 344.439 78.771 344.432 78.6678 344.417C78.5696 344.402 78.4468 344.375 78.2995 344.336V343.128C78.5303 343.192 78.6973 343.231 78.8004 343.246C78.9036 343.261 78.9944 343.268 79.073 343.268C79.3185 343.268 79.4978 343.226 79.6107 343.143C79.7286 343.064 79.8268 342.966 79.9054 342.848C79.9299 342.809 80.0183 342.607 80.1706 342.244C80.3228 341.881 80.4333 341.611 80.5021 341.434L77.585 333.316H79.0877L81.2019 339.739L83.3308 333.316Z" fill="white"/>
<path d="M69.9019 330.347H71.191V334.274C71.4807 333.895 71.8269 333.608 72.2296 333.412C72.6323 333.21 73.0694 333.11 73.5409 333.11C74.5231 333.11 75.3186 333.449 75.9276 334.126C76.5415 334.799 76.8484 335.794 76.8484 337.11C76.8484 338.357 76.5464 339.393 75.9423 340.218C75.3383 341.043 74.501 341.456 73.4304 341.456C72.8312 341.456 72.3254 341.311 71.9129 341.021C71.6673 340.849 71.4046 340.574 71.1247 340.196V341.205H69.9019V330.347ZM73.3493 340.285C74.0663 340.285 74.6016 340 74.9552 339.43C75.3137 338.86 75.493 338.109 75.493 337.176C75.493 336.346 75.3137 335.658 74.9552 335.113C74.6016 334.568 74.0786 334.296 73.3862 334.296C72.7821 334.296 72.2517 334.519 71.795 334.966C71.3432 335.413 71.1173 336.15 71.1173 337.176C71.1173 337.917 71.2106 338.519 71.3972 338.981C71.7459 339.85 72.3966 340.285 73.3493 340.285Z" fill="white"/>
<defs>
<linearGradient id="paint0_linear_162_327" x1="32.2802" y1="246.242" x2="69.5209" y2="286.55" gradientUnits="userSpaceOnUse">
<stop stop-color="white"/>
<stop offset="1" stop-color="#BABABA"/>
</linearGradient>
<linearGradient id="paint1_linear_162_327" x1="113.332" y1="247.17" x2="149.526" y2="286.564" gradientUnits="userSpaceOnUse">
<stop stop-color="white"/>
<stop offset="1" stop-color="#BABABA"/>
</linearGradient>
<linearGradient id="paint2_linear_162_327" x1="173.642" y1="246.242" x2="210.81" y2="287.364" gradientUnits="userSpaceOnUse">
<stop stop-color="white"/>
<stop offset="1" stop-color="#BABABA"/>
</linearGradient>
<linearGradient id="paint3_linear_162_327" x1="235.461" y1="246.242" x2="272.791" y2="282.156" gradientUnits="userSpaceOnUse">
<stop stop-color="white"/>
<stop offset="1" stop-color="#BABABA"/>
</linearGradient>
<linearGradient id="paint4_linear_162_327" x1="2.9867" y1="259.57" x2="18.6783" y2="264.621" gradientUnits="userSpaceOnUse">
<stop stop-color="white"/>
<stop offset="1" stop-color="#BABABA"/>
</linearGradient>
<linearGradient id="paint5_linear_162_327" x1="2.87147" y1="236.33" x2="10.5507" y2="245.196" gradientUnits="userSpaceOnUse">
<stop stop-color="white"/>
<stop offset="1" stop-color="#BABABA"/>
</linearGradient>
<linearGradient id="paint6_linear_162_327" x1="294.451" y1="246.242" x2="330.833" y2="275.119" gradientUnits="userSpaceOnUse">
<stop stop-color="white"/>
<stop offset="1" stop-color="#BABABA"/>
</linearGradient>
<linearGradient id="paint7_linear_162_327" x1="97.8241" y1="39.3346" x2="209.062" y2="199.108" gradientUnits="userSpaceOnUse">
<stop stop-color="white"/>
<stop offset="1" stop-color="#BABABA"/>
</linearGradient>
<linearGradient id="paint8_linear_162_327" x1="117.984" y1="87.2557" x2="195.962" y2="198.645" gradientUnits="userSpaceOnUse">
<stop stop-color="white"/>
<stop offset="1" stop-color="#BABABA"/>
</linearGradient>
<linearGradient id="paint9_linear_162_327" x1="155.599" y1="170.193" x2="174.226" y2="191.698" gradientUnits="userSpaceOnUse">
<stop stop-color="white"/>
<stop offset="1" stop-color="#BABABA"/>
</linearGradient>
</defs>
</svg>
